<svg width="14" height="14" viewBox="0 0 14 14" fill="none" xmlns="http://www.w3.org/2000/svg">
<path d="M12.1796 10.5187C11.9859 9.34372 10.9421 8.50153 9.75304 8.55934C8.56398 8.61716 7.60773 9.55935 7.53116 10.7468C5.13273 10.6718 4.28116 10.1109 4.42023 8.97028C4.47179 8.54372 4.7296 8.31559 5.20304 8.20466C5.49054 8.13747 5.80929 8.12809 6.09835 8.15466C6.12491 8.15778 6.15304 8.15934 6.1796 8.16247C6.35616 8.20466 6.53585 8.2406 6.71554 8.26872C7.24835 8.35622 7.79054 8.39997 8.30616 8.37184C9.75616 8.29372 10.7437 7.65466 10.7937 6.29841C10.8421 4.98434 9.93898 4.0531 8.48273 3.42966C8.01554 3.22966 7.52023 3.07497 7.02491 2.95778C6.80148 2.90466 6.61398 2.86872 6.47491 2.84528C6.35148 1.65935 5.35773 0.754657 4.16554 0.745282C2.97335 0.735907 1.96398 1.62185 1.82023 2.80622C1.67648 3.9906 2.44523 5.09216 3.6046 5.36716C4.76398 5.64216 5.94679 5.0031 6.34991 3.88122C6.49679 3.90778 6.6421 3.93747 6.78741 3.97184C7.22804 4.07497 7.66866 4.21247 8.07491 4.38747C9.1796 4.85935 9.78273 5.48278 9.7546 6.26091C9.7296 6.95778 9.2296 7.27966 8.25148 7.33278C7.82179 7.35622 7.35148 7.31872 6.88741 7.24216C6.75773 7.22028 6.63898 7.19841 6.53429 7.17497C6.47335 7.16247 6.43116 7.15153 6.41241 7.14684L6.36398 7.13747C6.3296 7.13278 6.27179 7.12497 6.19679 7.11716C5.80616 7.08122 5.38273 7.09372 4.97023 7.18903C4.10773 7.39059 3.50304 7.92653 3.39054 8.84216C3.14523 10.814 4.61866 11.7281 7.70304 11.7937C8.15773 12.8937 9.36554 13.4797 10.5093 13.1531C11.6546 12.8265 12.3734 11.6937 12.1796 10.5187V10.5187ZM4.1421 4.3906C3.97117 4.39058 3.80191 4.35691 3.64399 4.29148C3.48607 4.22606 3.34259 4.13017 3.22173 4.0093C3.10086 3.88842 3.005 3.74492 2.93959 3.587C2.87419 3.42907 2.84053 3.25981 2.84054 3.08888C2.84055 2.91794 2.87423 2.74868 2.93965 2.59077C3.00507 2.43285 3.10096 2.28936 3.22184 2.1685C3.34271 2.04764 3.48621 1.95177 3.64414 1.88637C3.80206 1.82096 3.97132 1.7873 4.14226 1.78731C4.48747 1.78733 4.81854 1.92449 5.06263 2.16861C5.30672 2.41273 5.44384 2.74382 5.44382 3.08903C5.4438 3.43425 5.30664 3.76532 5.06252 4.00941C4.8184 4.2535 4.48732 4.39062 4.1421 4.3906ZM9.86866 12.2C9.69773 12.2 9.52847 12.1663 9.37055 12.1009C9.21264 12.0354 9.06915 11.9395 8.94829 11.8187C8.82743 11.6978 8.73156 11.5543 8.66615 11.3964C8.60075 11.2384 8.56709 11.0692 8.5671 10.8983C8.56711 10.7273 8.60079 10.5581 8.66621 10.4001C8.73164 10.2422 8.82752 10.0987 8.9484 9.97788C9.06928 9.85701 9.21277 9.76114 9.3707 9.69574C9.52863 9.63034 9.69789 9.59668 9.86882 9.59669C10.214 9.59671 10.5451 9.73387 10.7892 9.97799C11.0333 10.2221 11.1704 10.5532 11.1704 10.8984C11.1704 11.2436 11.0332 11.5747 10.7891 11.8188C10.545 12.0629 10.2139 12.2 9.86866 12.2V12.2Z" fill="#2673DD"/>
</svg>
