<svg width="14" height="14" viewBox="0 0 14 14" fill="none" xmlns="http://www.w3.org/2000/svg">
<path d="M12.1726 10.5245C11.9789 9.34953 10.9351 8.50734 9.74602 8.56516C8.55696 8.62297 7.60071 9.56516 7.52415 10.7526C5.12571 10.6777 4.27415 10.1167 4.41321 8.97609C4.46477 8.54953 4.72258 8.32141 5.19602 8.21047C5.48352 8.14328 5.80227 8.13391 6.09133 8.16047C6.1179 8.16359 6.14602 8.16516 6.17258 8.16828C6.34915 8.21047 6.52883 8.24641 6.70852 8.27453C7.24133 8.36203 7.78352 8.40578 8.29915 8.37766C9.74915 8.29953 10.7366 7.66047 10.7866 6.30422C10.8351 4.99016 9.93196 4.05891 8.47571 3.43547C8.00852 3.23547 7.51321 3.08078 7.0179 2.96359C6.79446 2.91047 6.60696 2.87453 6.4679 2.85109C6.34446 1.66516 5.35071 0.760471 4.15852 0.751096C2.96633 0.741721 1.95696 1.62766 1.81321 2.81203C1.66946 3.99641 2.43821 5.09797 3.59758 5.37297C4.75696 5.64797 5.93977 5.00891 6.3429 3.88703C6.48977 3.91359 6.63508 3.94328 6.7804 3.97766C7.22102 4.08078 7.66165 4.21828 8.0679 4.39328C9.17258 4.86516 9.77571 5.48859 9.74758 6.26672C9.72258 6.96359 9.22258 7.28547 8.24446 7.33859C7.81477 7.36203 7.34446 7.32453 6.8804 7.24797C6.75071 7.22609 6.63196 7.20422 6.52727 7.18078C6.46633 7.16828 6.42415 7.15734 6.4054 7.15266L6.35696 7.14328C6.32258 7.13859 6.26477 7.13078 6.18977 7.12297C5.79915 7.08703 5.37571 7.09953 4.96321 7.19484C4.10071 7.39641 3.49602 7.93234 3.38352 8.84797C3.13821 10.8198 4.61165 11.7339 7.69602 11.7995C8.15071 12.8995 9.35852 13.4854 10.5023 13.1589C11.6476 12.8323 12.3664 11.6995 12.1726 10.5245ZM4.13508 4.39641C3.96415 4.3964 3.79489 4.36272 3.63697 4.29729C3.47905 4.23187 3.33557 4.13599 3.21471 4.01511C3.09385 3.89423 2.99798 3.75074 2.93257 3.59281C2.86717 3.43488 2.83351 3.26562 2.83352 3.09469C2.83353 2.92375 2.86721 2.7545 2.93263 2.59658C2.99806 2.43866 3.09394 2.29517 3.21482 2.17431C3.33569 2.05345 3.47919 1.95758 3.63712 1.89218C3.79504 1.82677 3.96431 1.79311 4.13524 1.79312C4.48046 1.79315 4.81153 1.9303 5.05562 2.17442C5.29971 2.41854 5.43682 2.74963 5.4368 3.09484C5.43678 3.44006 5.29962 3.77113 5.05551 4.01522C4.81139 4.25931 4.4803 4.39643 4.13508 4.39641ZM9.86165 12.2058C9.69071 12.2058 9.52145 12.1721 9.36354 12.1066C9.20562 12.0412 9.06213 11.9453 8.94127 11.8245C8.82041 11.7036 8.72454 11.5601 8.65914 11.4022C8.59373 11.2442 8.56007 11.075 8.56008 10.904C8.56009 10.7331 8.59377 10.5639 8.6592 10.406C8.72462 10.248 8.82051 10.1046 8.94138 9.98369C9.06226 9.86283 9.20575 9.76696 9.36368 9.70155C9.52161 9.63615 9.69087 9.60249 9.8618 9.6025C10.207 9.60252 10.5381 9.73968 10.7822 9.9838C11.0263 10.2279 11.1634 10.559 11.1634 10.9042C11.1633 11.2494 11.0262 11.5805 10.7821 11.8246C10.5379 12.0687 10.2069 12.2058 9.86165 12.2058Z" fill="#2673DD"/>
</svg>
