<svg width="14" height="14" viewBox="0 0 14 14" fill="none" xmlns="http://www.w3.org/2000/svg">
<path d="M12.4667 10.9481C12.262 9.63191 11.1589 8.6885 9.90219 8.75327C8.64551 8.81803 7.63488 9.87345 7.55396 11.2036C5.01912 11.1197 4.11913 10.4913 4.2661 9.21359C4.32059 8.73576 4.59306 8.48022 5.09343 8.35595C5.39728 8.28069 5.73416 8.27019 6.03965 8.29994C6.06774 8.30344 6.09745 8.3052 6.12553 8.30869C6.31214 8.35595 6.50204 8.39621 6.69195 8.42771C7.25506 8.52573 7.82808 8.57473 8.37304 8.54323C9.9055 8.45572 10.9492 7.73985 11.002 6.2206C11.0532 4.74861 10.0987 3.70544 8.55964 3.00708C8.06588 2.78304 7.5424 2.60976 7.01892 2.47848C6.78277 2.41898 6.58461 2.37872 6.43764 2.35246C6.30718 1.024 5.25691 0.0105843 3.99692 8.25705e-05C2.73693 -0.0104191 1.67015 0.981993 1.51823 2.30871C1.3663 3.63543 2.17877 4.86938 3.40408 5.17743C4.6294 5.48548 5.87948 4.76962 6.30553 3.51291C6.46075 3.54266 6.61433 3.57592 6.76791 3.61443C7.23359 3.72994 7.69928 3.88397 8.12864 4.08C9.29614 4.60859 9.93357 5.30695 9.90384 6.1786C9.87742 6.95922 9.34898 7.31978 8.31524 7.37929C7.86111 7.40554 7.36405 7.36354 6.8736 7.27778C6.73654 7.25327 6.61103 7.22877 6.50039 7.20251C6.43598 7.18851 6.3914 7.17625 6.37159 7.17101L6.32039 7.1605C6.28406 7.15525 6.22296 7.1465 6.14369 7.13775C5.73086 7.09749 5.28334 7.1115 4.84738 7.21826C3.93582 7.44406 3.29675 8.04439 3.17785 9.07007C2.91859 11.2789 4.47582 12.3029 7.73561 12.3763C8.21616 13.6085 9.49266 14.2649 10.7015 13.8991C11.9119 13.5333 12.6716 12.2643 12.4667 10.9481ZM3.97215 4.08351C3.7915 4.08349 3.61261 4.04577 3.44571 3.97247C3.27881 3.89919 3.12717 3.79179 2.99944 3.65638C2.8717 3.52097 2.77038 3.36024 2.70125 3.18333C2.63213 3.00642 2.59656 2.81681 2.59657 2.62534C2.59658 2.43386 2.63217 2.24426 2.70131 2.06737C2.77047 1.89047 2.8718 1.72973 2.99955 1.59435C3.1273 1.45896 3.27896 1.35157 3.44587 1.27831C3.61277 1.20504 3.79167 1.16733 3.97232 1.16734C4.33717 1.16738 4.68707 1.32101 4.94504 1.59447C5.20301 1.86793 5.34792 2.23881 5.3479 2.62551C5.34788 3.01222 5.20292 3.38308 4.94493 3.6565C4.68692 3.92993 4.337 4.08353 3.97215 4.08351ZM10.0244 12.8315C9.84374 12.8315 9.66485 12.7937 9.49796 12.7204C9.33106 12.6471 9.17941 12.5397 9.05168 12.4043C8.92394 12.2689 8.82262 12.1082 8.7535 11.9313C8.68437 11.7543 8.6488 11.5648 8.64881 11.3732C8.64882 11.1818 8.68441 10.9922 8.75356 10.8153C8.8227 10.6384 8.92405 10.4777 9.05179 10.3423C9.17955 10.2069 9.3312 10.0995 9.49811 10.0262C9.66502 9.95297 9.84391 9.91527 10.0246 9.91528C10.3894 9.9153 10.7393 10.0689 10.9973 10.3424C11.2553 10.6159 11.4002 10.9867 11.4001 11.3734C11.4001 11.7601 11.2552 12.131 10.9972 12.4045C10.7392 12.6779 10.3892 12.8315 10.0244 12.8315Z" fill="black" fill-opacity="0.85098"/>
</svg>
