<svg width="19" height="21" viewBox="0 0 19 21" fill="none" xmlns="http://www.w3.org/2000/svg">
<path d="M14.3766 13.7735C14.1829 12.5985 13.1391 11.7563 11.9501 11.8141C10.761 11.8719 9.80475 12.8141 9.72819 14.0016C7.32975 13.9266 6.47819 13.3657 6.61725 12.2251C6.66881 11.7985 6.92662 11.5704 7.40006 11.4594C7.68756 11.3923 8.00631 11.3829 8.29537 11.4095C8.32194 11.4126 8.35006 11.4141 8.37662 11.4173C8.55319 11.4595 8.73287 11.4954 8.91256 11.5235C9.44537 11.611 9.98756 11.6548 10.5032 11.6266C11.9532 11.5485 12.9407 10.9094 12.9907 9.5532C13.0391 8.23914 12.136 7.30789 10.6797 6.68445C10.2126 6.48445 9.71725 6.32976 9.22194 6.21257C8.9985 6.15945 8.811 6.12351 8.67194 6.10007C8.5485 4.91414 7.55475 4.00945 6.36256 4.00007C5.17037 3.9907 4.161 4.87664 4.01725 6.06101C3.8735 7.24539 4.64225 8.34695 5.80162 8.62195C6.961 8.89695 8.14381 8.25789 8.54694 7.13601C8.69381 7.16257 8.83912 7.19226 8.98444 7.22664C9.42506 7.32976 9.86569 7.46726 10.2719 7.64226C11.3766 8.11414 11.9798 8.73757 11.9516 9.5157C11.9266 10.2126 11.4266 10.5345 10.4485 10.5876C10.0188 10.611 9.5485 10.5735 9.08444 10.497C8.95475 10.4751 8.836 10.4532 8.73131 10.4298C8.67037 10.4173 8.62819 10.4063 8.60944 10.4016L8.561 10.3923C8.52662 10.3876 8.46881 10.3798 8.39381 10.372C8.00319 10.336 7.57975 10.3485 7.16725 10.4438C6.30475 10.6454 5.70006 11.1813 5.58756 12.0969C5.34225 14.0688 6.81569 14.9829 9.90006 15.0485C10.3548 16.1485 11.5626 16.7344 12.7063 16.4079C13.8516 16.0813 14.5704 14.9485 14.3766 13.7735ZM6.33912 7.64539C6.16819 7.64538 5.99893 7.6117 5.84101 7.54627C5.68309 7.48085 5.53961 7.38497 5.41875 7.26409C5.29789 7.14321 5.20202 6.99972 5.13661 6.84179C5.07121 6.68386 5.03755 6.5146 5.03756 6.34367C5.03757 6.17273 5.07125 6.00348 5.13667 5.84556C5.2021 5.68764 5.29798 5.54415 5.41886 5.42329C5.53973 5.30243 5.68323 5.20656 5.84116 5.14116C5.99908 5.07575 6.16835 5.04209 6.33928 5.0421C6.6845 5.04213 7.01557 5.17928 7.25966 5.4234C7.50375 5.66752 7.64086 5.99861 7.64084 6.34382C7.64082 6.68904 7.50366 7.02011 7.25955 7.2642C7.01543 7.50829 6.68434 7.64541 6.33912 7.64539ZM12.0657 15.4548C11.8948 15.4548 11.7255 15.4211 11.5676 15.3556C11.4097 15.2902 11.2662 15.1943 11.1453 15.0735C11.0244 14.9526 10.9286 14.8091 10.8632 14.6512C10.7978 14.4932 10.7641 14.324 10.7641 14.153C10.7641 13.9821 10.7978 13.8129 10.8632 13.6549C10.9287 13.497 11.0246 13.3535 11.1454 13.2327C11.2663 13.1118 11.4098 13.0159 11.5677 12.9505C11.7256 12.8851 11.8949 12.8515 12.0658 12.8515C12.4111 12.8515 12.7421 12.9887 12.9862 13.2328C13.2303 13.4769 13.3674 13.808 13.3674 14.1532C13.3674 14.4984 13.2302 14.8295 12.9861 15.0736C12.742 15.3177 12.4109 15.4548 12.0657 15.4548Z" fill="#2673DD"/>
</svg>
