<svg width="11" height="13" viewBox="0 0 11 13" fill="none" xmlns="http://www.w3.org/2000/svg">
<path d="M10.3766 9.77351C10.1829 8.59851 9.13912 7.75632 7.95006 7.81414C6.761 7.87195 5.80475 8.81414 5.72819 10.0016C3.32975 9.92664 2.47819 9.3657 2.61725 8.22507C2.66881 7.79851 2.92662 7.57039 3.40006 7.45945C3.68756 7.39226 4.00631 7.38289 4.29537 7.40945C4.32194 7.41257 4.35006 7.41414 4.37662 7.41726C4.55319 7.45945 4.73287 7.49539 4.91256 7.52351C5.44537 7.61101 5.98756 7.65476 6.50319 7.62664C7.95319 7.54851 8.94069 6.90945 8.99069 5.5532C9.03912 4.23914 8.136 3.30789 6.67975 2.68445C6.21256 2.48445 5.71725 2.32976 5.22194 2.21257C4.9985 2.15945 4.811 2.12351 4.67194 2.10007C4.5485 0.914136 3.55475 0.00944871 2.36256 7.37115e-05C1.17037 -0.00930129 0.160998 0.876636 0.0172482 2.06101C-0.126502 3.24539 0.642249 4.34695 1.80162 4.62195C2.961 4.89695 4.14381 4.25789 4.54694 3.13601C4.69381 3.16257 4.83912 3.19226 4.98444 3.22664C5.42506 3.32976 5.86569 3.46726 6.27194 3.64226C7.37662 4.11414 7.97975 4.73757 7.95162 5.5157C7.92662 6.21257 7.42662 6.53445 6.4485 6.58757C6.01881 6.61101 5.5485 6.57351 5.08444 6.49695C4.95475 6.47507 4.836 6.4532 4.73131 6.42976C4.67037 6.41726 4.62819 6.40632 4.60944 6.40164L4.561 6.39226C4.52662 6.38757 4.46881 6.37976 4.39381 6.37195C4.00319 6.33601 3.57975 6.34851 3.16725 6.44382C2.30475 6.64539 1.70006 7.18132 1.58756 8.09695C1.34225 10.0688 2.81569 10.9829 5.90006 11.0485C6.35475 12.1485 7.56256 12.7344 8.70631 12.4079C9.85162 12.0813 10.5704 10.9485 10.3766 9.77351V9.77351ZM2.33912 3.64539C2.16819 3.64538 1.99893 3.6117 1.84101 3.54627C1.68309 3.48085 1.53961 3.38497 1.41875 3.26409C1.29789 3.14321 1.20202 2.99972 1.13661 2.84179C1.07121 2.68386 1.03755 2.5146 1.03756 2.34367C1.03757 2.17273 1.07125 2.00348 1.13667 1.84556C1.2021 1.68764 1.29798 1.54415 1.41886 1.42329C1.53973 1.30243 1.68323 1.20656 1.84116 1.14116C1.99908 1.07575 2.16835 1.04209 2.33928 1.0421C2.6845 1.04213 3.01557 1.17928 3.25966 1.4234C3.50375 1.66752 3.64086 1.99861 3.64084 2.34382C3.64082 2.68904 3.50366 3.02011 3.25955 3.2642C3.01543 3.50829 2.68434 3.64541 2.33912 3.64539ZM8.06569 11.4548C7.89475 11.4548 7.72549 11.4211 7.56758 11.3556C7.40966 11.2902 7.26617 11.1943 7.14531 11.0735C7.02445 10.9526 6.92858 10.8091 6.86318 10.6512C6.79777 10.4932 6.76411 10.324 6.76412 10.153C6.76413 9.98211 6.79781 9.81285 6.86324 9.65493C6.92866 9.49701 7.02455 9.35353 7.14542 9.23267C7.2663 9.11181 7.40979 9.01594 7.56772 8.95053C7.72565 8.88513 7.89491 8.85147 8.06584 8.85148C8.41106 8.8515 8.74213 8.98866 8.98622 9.23278C9.23031 9.4769 9.36743 9.80798 9.36741 10.1532C9.36738 10.4984 9.23023 10.8295 8.98611 11.0736C8.74199 11.3177 8.4109 11.4548 8.06569 11.4548V11.4548Z" fill="#2673DD"/>
</svg>
